<?xml version="1.0" encoding="utf-8"?>
<!-- Generator: Adobe Illustrator 16.0.4, SVG Export Plug-In . SVG Version: 6.00 Build 0)  -->
<!DOCTYPE svg PUBLIC "-//W3C//DTD SVG 1.1//EN" "http://www.w3.org/Graphics/SVG/1.1/DTD/svg11.dtd">
<svg version="1.1" id="Layer_1" xmlns="http://www.w3.org/2000/svg" xmlns:xlink="http://www.w3.org/1999/xlink" x="0px" y="0px"
	 width="664.449px" height="108px" viewBox="0 0 664.449 108" enable-background="new 0 0 664.449 108" xml:space="preserve">
<polygon fill="#FFFFFF" points="469.197,45 407.45,106.746 416.472,106.746 470.621,52.6 470.621,106.746 477,106.746 477,45 "/>
<path fill="#FFFFFF" d="M299.346,81v27h9V81c0-14.912,12.088-27,27-27v-9C315.463,45,299.346,61.118,299.346,81z"/>
<path fill="#FFFFFF" d="M101.346,81h8.675c0.21-1.471,0.325-2.972,0.325-4.5c0-17.396-14.104-31.5-31.5-31.5s-31.5,14.104-31.5,31.5
	s14.104,31.5,31.5,31.5c12.564,0,23.408-7.359,28.465-18H96.846c-4.104,5.465-10.639,9-18,9c-10.886,0-19.965-7.729-22.049-18
	h44.098H101.346z M56.797,72c2.084-10.271,11.163-18,22.049-18s19.965,7.729,22.049,18H56.797z"/>
<path fill="#FFFFFF" d="M389.346,81h8.674c0.211-1.471,0.326-2.972,0.326-4.5c0-17.396-14.104-31.5-31.5-31.5
	s-31.5,14.104-31.5,31.5s14.104,31.5,31.5,31.5c12.564,0,23.408-7.359,28.465-18h-10.465c-4.105,5.465-10.639,9-18,9
	c-10.887,0-19.965-7.729-22.049-18h44.098H389.346z M344.797,72c2.084-10.271,11.162-18,22.049-18c10.885,0,19.965,7.729,22.049,18
	H344.797z"/>
<path fill="#FFFFFF" d="M172.895,81c-2.084,10.271-11.163,18-22.049,18c-12.427,0-22.5-10.073-22.5-22.5s10.073-22.5,22.5-22.5
	c10.886,0,19.965,7.729,22.049,18h9.126c-2.185-15.264-15.307-27-31.175-27c-17.396,0-31.5,14.104-31.5,31.5s14.104,31.5,31.5,31.5
	c15.868,0,28.99-11.736,31.175-27H172.895z"/>
<path fill="#FFFFFF" d="M218.346,54v-9h-18V27h-9v18h-9v9h9v27c0,14.912,12.088,27,27,27v-9c-9.941,0-18-8.059-18-18V54H218.346z"/>
<path fill="#FFFFFF" d="M281.346,45v27h-0.451c0.295,1.454,0.451,2.959,0.451,4.5c0,12.426-10.073,22.5-22.5,22.5
	s-22.5-10.074-22.5-22.5c0-1.541,0.156-3.046,0.451-4.5h-0.451V45h-9v36h0.325c2.185,15.265,15.307,27,31.175,27
	s28.99-11.735,31.175-27h0.325V45H281.346z"/>
<g>
	<path fill="#FFFFFF" d="M496.449,100.363c2.566,1.58,6.32,2.897,10.27,2.897c5.859,0,9.283-3.095,9.283-7.571
		c0-4.147-2.371-6.518-8.361-8.822c-7.242-2.567-11.719-6.32-11.719-12.574c0-6.913,5.729-12.048,14.352-12.048
		c4.543,0,7.834,1.053,9.811,2.173l-1.58,4.674c-1.449-0.79-4.412-2.106-8.428-2.106c-6.057,0-8.361,3.621-8.361,6.649
		c0,4.147,2.699,6.188,8.822,8.559c7.506,2.896,11.324,6.518,11.324,13.035c0,6.847-5.07,12.772-15.537,12.772
		c-4.279,0-8.955-1.251-11.324-2.831L496.449,100.363z"/>
	<path fill="#FFFFFF" d="M535.486,100.363c2.566,1.58,6.32,2.897,10.27,2.897c5.859,0,9.283-3.095,9.283-7.571
		c0-4.147-2.371-6.518-8.361-8.822c-7.242-2.567-11.719-6.32-11.719-12.574c0-6.913,5.729-12.048,14.352-12.048
		c4.543,0,7.834,1.053,9.811,2.173l-1.58,4.674c-1.449-0.79-4.41-2.106-8.428-2.106c-6.057,0-8.361,3.621-8.361,6.649
		c0,4.147,2.699,6.188,8.822,8.559c7.506,2.896,11.324,6.518,11.324,13.035c0,6.847-5.07,12.772-15.537,12.772
		c-4.279,0-8.955-1.251-11.324-2.831L535.486,100.363z"/>
	<path fill="#FFFFFF" d="M581.041,62.968v44.373h-5.729V62.968H581.041z"/>
	<path fill="#FFFFFF" d="M596.839,100.363c2.566,1.58,6.32,2.897,10.27,2.897c5.859,0,9.283-3.095,9.283-7.571
		c0-4.147-2.371-6.518-8.361-8.822c-7.242-2.567-11.719-6.32-11.719-12.574c0-6.913,5.729-12.048,14.352-12.048
		c4.543,0,7.834,1.053,9.811,2.173l-1.58,4.674c-1.449-0.79-4.412-2.106-8.428-2.106c-6.057,0-8.361,3.621-8.361,6.649
		c0,4.147,2.699,6.188,8.822,8.559c7.506,2.896,11.324,6.518,11.324,13.035c0,6.847-5.07,12.772-15.537,12.772
		c-4.279,0-8.955-1.251-11.324-2.831L596.839,100.363z"/>
	<path fill="#FFFFFF" d="M645.091,67.84h-13.494v-4.872h32.852v4.872h-13.562v39.501h-5.795V67.84z"/>
</g>
<path fill="#FFFFFF" d="M36,99C21.088,99,9,86.912,9,72V45V0H0v45v27c0,19.882,16.118,36,36,36h9v-9H36z"/>
</svg>
